<svg xmlns="http://www.w3.org/2000/svg" data-name="Layer 1" viewBox="0 0 128 160" x="0px" y="0px">
  <title>ic_apply</title>
  <path d="M70,32H46a2,2,0,0,0,0,4H70a2,2,0,0,0,0-4Z" fill="rgb(81, 158, 166)"/>
  <path d="M46,48h8a2,2,0,0,0,0-4H46a2,2,0,0,0,0,4Z" fill="rgb(81, 158, 166)"/>
  <path d="M98,91a2,2,0,0,0-2,2v15H36V32a11.93,11.93,0,0,0-3.08-8H88a8,8,0,0,1,8,8V42a2,2,0,0,0,4,0V32A12,12,0,0,0,88,20H24A12,12,0,0,0,12,32V50a2,2,0,0,0,2,2H32v58a2,2,0,0,0,2,2H98a2,2,0,0,0,2-2V93A2,2,0,0,0,98,91ZM16,32a8,8,0,0,1,16,0V48H16Z" fill="rgb(81, 158, 166)"/>
  <path d="M46,96a2,2,0,0,0,0,4H59a2,2,0,0,0,0-4Z" fill="rgb(81, 158, 166)"/>
  <path d="M119.41,59.74,105.26,45.59a2,2,0,0,0-2.82,0L71.32,76.71a2.1,2.1,0,0,0-.51.86l-5.65,19.8a2,2,0,0,0,.51,2,2,2,0,0,0,1.41.59,2.09,2.09,0,0,0,.55-.08l19.8-5.65a2,2,0,0,0,.86-.51l31.12-31.12a2,2,0,0,0,0-2.82ZM73.73,81.94l9.33,9.33L70,95Zm13.15,7.5L75.56,78.12l28.29-28.28,11.31,11.31Z" fill="rgb(81, 158, 166)"/>
  <path d="M72,58a2,2,0,0,0-2-2H46a2,2,0,0,0,0,4H70A2,2,0,0,0,72,58Z" fill="rgb(81, 158, 166)"/>
</svg>
