<svg width="25" height="24" viewBox="0 0 25 24" fill="none" xmlns="http://www.w3.org/2000/svg">
<path fill-rule="evenodd" clip-rule="evenodd" d="M11.3036 4.13674C13.0693 2.37109 15.932 2.37109 17.6976 4.13674C19.4633 5.90239 19.4633 8.76508 17.6976 10.5307L12.3643 15.8641C11.335 16.8933 9.66622 16.8933 8.63694 15.8641C7.60767 14.8348 7.60767 13.166 8.63694 12.1367L13.9703 6.80341C14.2632 6.51051 14.738 6.51051 15.0309 6.80341C15.3238 7.0963 15.3238 7.57117 15.0309 7.86407L9.6976 13.1974C9.25412 13.6409 9.25412 14.3599 9.6976 14.8034C10.1411 15.2469 10.8601 15.2469 11.3036 14.8034L16.6369 9.47007C17.8168 8.29021 17.8168 6.37727 16.6369 5.1974C15.4571 4.01753 13.5441 4.01753 12.3643 5.1974L7.03093 10.5307C5.11469 12.447 5.11469 15.5538 7.03094 17.4701C8.94718 19.3863 12.054 19.3863 13.9703 17.4701L19.3036 12.1367C19.5965 11.8439 20.0714 11.8439 20.3643 12.1367C20.6572 12.4296 20.6572 12.9045 20.3643 13.1974L15.0309 18.5307C12.5289 21.0328 8.47231 21.0328 5.97028 18.5307C3.46824 16.0287 3.46824 11.9721 5.97027 9.47008L11.3036 4.13674Z" fill="#519EA6"/>
</svg>
