<svg width="20" height="20" viewBox="0 0 20 20" fill="none" xmlns="http://www.w3.org/2000/svg">
<g clip-path="url(#clip0_8702_5864)">
<path fill-rule="evenodd" clip-rule="evenodd" d="M4.54425 4.38758C4.87603 4.13423 5.34407 4.16546 5.63926 4.46064L8.81932 7.6407C8.82126 7.64262 8.82319 7.64455 8.82511 7.64649L12.3534 11.1747C12.3553 11.1767 12.3573 11.1787 12.3592 11.1806L15.5393 14.3606C15.7093 14.5307 15.7976 14.7658 15.7815 15.0057C15.7654 15.2456 15.6464 15.4669 15.4552 15.6126C13.8892 16.8063 11.9824 17.4676 10.0136 17.4998L10 17.4999C6.75041 17.4999 4.25373 15.6445 2.62122 13.9032C1.79736 13.0244 1.16839 12.1488 0.74528 11.4937C0.533208 11.1653 0.371493 10.8902 0.261643 10.6949C0.206686 10.5972 0.164617 10.5193 0.135628 10.4645C0.121131 10.4371 0.109896 10.4155 0.101948 10.4L0.0924917 10.3815L0.0896159 10.3758L0.0886418 10.3739C0.0886418 10.3739 0.0879775 10.3726 0.833333 9.99989L0.0879774 10.3726C-0.0331156 10.1304 -0.0289912 9.84446 0.099037 9.60587C1.19179 7.56941 2.70742 5.7902 4.54425 4.38758ZM1.78548 10.0025C1.87637 10.1595 1.9966 10.3591 2.14535 10.5895C2.52953 11.1843 3.09847 11.9754 3.83711 12.7633C5.32829 14.3539 7.4126 15.8306 9.9932 15.8332C11.2811 15.811 12.5364 15.4602 13.6428 14.8212L11.7081 12.8865C11.5758 12.9695 11.4376 13.0432 11.2943 13.107C10.8854 13.2892 10.444 13.3872 9.99644 13.3951C9.54887 13.403 9.1043 13.3206 8.68924 13.153C8.27418 12.9853 7.89714 12.7358 7.58062 12.4193C7.26409 12.1027 7.01456 11.7257 6.84691 11.3107C6.67926 10.8956 6.59693 10.451 6.60482 10.0035C6.61272 9.55588 6.71069 9.11449 6.89287 8.7056C6.95671 8.56233 7.03044 8.42407 7.11337 8.29177L4.98925 6.16765C3.70859 7.25104 2.62446 8.54836 1.78548 10.0025ZM8.35658 9.53498C8.3031 9.69534 8.27423 9.86321 8.27123 10.0329C8.26728 10.2566 8.30845 10.4789 8.39227 10.6865C8.4761 10.894 8.60086 11.0825 8.75913 11.2408C8.91739 11.399 9.10591 11.5238 9.31344 11.6076C9.52097 11.6914 9.74326 11.7326 9.96704 11.7287C10.1367 11.7257 10.3046 11.6968 10.4649 11.6433L8.35658 9.53498Z" fill="#242428"/>
<path d="M9.99807 4.16669C9.47355 4.16545 8.95067 4.22521 8.43995 4.34476C7.99183 4.44965 7.54352 4.17141 7.43862 3.72328C7.33373 3.27516 7.61197 2.82685 8.0601 2.72195C8.69628 2.57304 9.34761 2.49856 10.001 2.50002C13.2501 2.50039 15.7465 4.35556 17.3788 6.09674C18.2027 6.97552 18.8316 7.85111 19.2547 8.50625C19.4668 8.83462 19.6285 9.10972 19.7384 9.30501L19.912 9.62734C20.0329 9.86911 20.029 10.1545 19.9016 10.3929C19.3684 11.3904 18.7325 12.3295 18.0043 13.1949C17.708 13.547 17.1823 13.5923 16.8302 13.296C16.478 12.9997 16.4327 12.474 16.7291 12.1218C17.2866 11.4592 17.7838 10.7485 18.215 9.99816C18.124 9.84106 18.0037 9.64115 17.8547 9.41046C17.4705 8.81559 16.9016 8.02452 16.1629 7.23664C14.6704 5.64465 12.5838 4.16669 10 4.16669L9.99807 4.16669Z" fill="#242428"/>
<path fill-rule="evenodd" clip-rule="evenodd" d="M0.244078 0.244078C0.569515 -0.0813592 1.09715 -0.0813592 1.42259 0.244078L19.7559 18.5774C20.0814 18.9028 20.0814 19.4305 19.7559 19.7559C19.4305 20.0814 18.9028 20.0814 18.5774 19.7559L0.244078 1.42259C-0.0813592 1.09715 -0.0813592 0.569515 0.244078 0.244078Z" fill="#242428"/>
</g>
<defs>
<clipPath id="clip0_8702_5864">
<rect width="20" height="20" fill="white"/>
</clipPath>
</defs>
</svg>
