<svg width="65" height="64" viewBox="0 0 65 64" fill="none" xmlns="http://www.w3.org/2000/svg">
<path opacity="0.12" d="M20.2105 6.58171C20.6717 6.1205 20.9023 5.8899 21.1714 5.72499C21.41 5.57878 21.6701 5.47104 21.9422 5.40571C22.2491 5.33203 22.5752 5.33203 23.2275 5.33203H41.7728C42.4251 5.33203 42.7512 5.33203 43.0581 5.40571C43.3302 5.47104 43.5903 5.57878 43.8289 5.72499C44.098 5.8899 44.3286 6.1205 44.7898 6.58171L57.9171 19.709C58.3784 20.1702 58.609 20.4008 58.7739 20.6699C58.9201 20.9085 59.0278 21.1686 59.0931 21.4407C59.1668 21.7476 59.1668 22.0738 59.1668 22.726V41.2714C59.1668 41.9236 59.1668 42.2497 59.0931 42.5566C59.0278 42.8287 58.9201 43.0889 58.7739 43.3275C58.609 43.5966 58.3784 43.8272 57.9171 44.2884L44.7898 57.4157C44.3286 57.8769 44.098 58.1075 43.8289 58.2724C43.5903 58.4186 43.3302 58.5264 43.0581 58.5917C42.7512 58.6654 42.4251 58.6654 41.7728 58.6654H23.2275C22.5752 58.6654 22.2491 58.6654 21.9422 58.5917C21.6701 58.5264 21.41 58.4186 21.1714 58.2724C20.9023 58.1075 20.6717 57.8769 20.2105 57.4157L7.08317 44.2884C6.62197 43.8272 6.39137 43.5966 6.22646 43.3275C6.08025 43.0889 5.9725 42.8287 5.90718 42.5566C5.8335 42.2497 5.8335 41.9236 5.8335 41.2714V22.726C5.8335 22.0738 5.8335 21.7476 5.90718 21.4407C5.9725 21.1686 6.08025 20.9085 6.22646 20.6699C6.39137 20.4008 6.62197 20.1702 7.08317 19.709L20.2105 6.58171Z" fill="#EE786C"/>
<path d="M32.5002 42.6654V31.9987M32.5002 21.332H32.5268M5.8335 22.726V41.2714C5.8335 41.9236 5.8335 42.2497 5.90718 42.5566C5.9725 42.8287 6.08025 43.0889 6.22646 43.3275C6.39137 43.5966 6.62197 43.8272 7.08317 44.2884L20.2105 57.4157C20.6717 57.8769 20.9023 58.1075 21.1714 58.2724C21.41 58.4186 21.6701 58.5264 21.9422 58.5917C22.2491 58.6654 22.5752 58.6654 23.2275 58.6654H41.7728C42.4251 58.6654 42.7512 58.6654 43.0581 58.5917C43.3302 58.5264 43.5903 58.4186 43.8289 58.2724C44.098 58.1075 44.3286 57.8769 44.7898 57.4157L57.9171 44.2884C58.3784 43.8272 58.609 43.5966 58.7739 43.3275C58.9201 43.0889 59.0278 42.8287 59.0931 42.5566C59.1668 42.2497 59.1668 41.9236 59.1668 41.2714V22.726C59.1668 22.0738 59.1668 21.7476 59.0931 21.4407C59.0278 21.1686 58.9201 20.9085 58.7739 20.6699C58.609 20.4008 58.3784 20.1702 57.9171 19.709L44.7898 6.58171C44.3286 6.1205 44.098 5.8899 43.8289 5.72499C43.5903 5.57878 43.3302 5.47104 43.0581 5.40571C42.7512 5.33203 42.4251 5.33203 41.7728 5.33203H23.2275C22.5752 5.33203 22.2491 5.33203 21.9422 5.40571C21.6701 5.47104 21.41 5.57878 21.1714 5.72499C20.9023 5.8899 20.6717 6.1205 20.2105 6.58171L7.08317 19.709C6.62197 20.1702 6.39137 20.4008 6.22646 20.6699C6.08025 20.9085 5.9725 21.1686 5.90718 21.4407C5.8335 21.7476 5.8335 22.0738 5.8335 22.726Z" stroke="#EE786C" stroke-width="5" stroke-linecap="round" stroke-linejoin="round"/>
</svg>
