<svg width="65" height="64" viewBox="0 0 65 64" fill="none" xmlns="http://www.w3.org/2000/svg">
<path opacity="0.2" d="M43.6735 5.3335H21.3268C11.6202 5.3335 5.8335 11.1202 5.8335 20.8268V43.1468C5.8335 52.8802 11.6202 58.6668 21.3268 58.6668H43.6468C53.3535 58.6668 59.1402 52.8802 59.1402 43.1735V20.8268C59.1668 11.1202 53.3802 5.3335 43.6735 5.3335Z" fill="#519EA6"/>
<path d="M28.7133 41.5464C28.18 41.5464 27.6733 41.3331 27.3 40.9598L19.7533 33.4131C18.98 32.6398 18.98 31.3598 19.7533 30.5864C20.5267 29.8131 21.8067 29.8131 22.58 30.5864L28.7133 36.7198L42.42 23.0131C43.1933 22.2398 44.4733 22.2398 45.2467 23.0131C46.02 23.7864 46.02 25.0664 45.2467 25.8398L30.1267 40.9598C29.7533 41.3331 29.2467 41.5464 28.7133 41.5464Z" fill="#519EA6"/>
</svg>
