<svg fill="rgb(81, 158, 166)" height="800px" width="800px" version="1.1" id="Capa_1" xmlns="http://www.w3.org/2000/svg" xmlns:xlink="http://www.w3.org/1999/xlink"
	 viewBox="0 0 512 512" xml:space="preserve">
<g>
	<path d="M411.779,192.47c-4.166,1.472-6.35,6.043-4.877,10.208C412.939,219.763,416,237.703,416,256c0,88.225-71.776,160-160,160
		S96,344.225,96,256S167.776,96,256,96c37.952,0,74.749,13.522,103.612,38.076c3.365,2.861,8.414,2.455,11.277-0.91
		s2.456-8.414-0.91-11.277C338.226,94.876,297.747,80,256,80c-97.047,0-176,78.953-176,176s78.953,176,176,176s176-78.953,176-176
		c0-20.118-3.369-39.852-10.012-58.652C420.516,193.182,415.946,190.997,411.779,192.47z"/>
	<path d="M392.307,172.166c1.512,2.453,4.133,3.804,6.818,3.804c1.432,0,2.881-0.385,4.19-1.19
		c3.761-2.318,4.931-7.247,2.612-11.008c-3.55-5.76-7.478-11.377-11.673-16.695c-2.737-3.47-7.767-4.063-11.236-1.325
		c-3.469,2.736-4.062,7.767-1.326,11.235C385.508,161.822,389.079,166.93,392.307,172.166z"/>
	<path d="M480,208h-13.393c-5.399-23.848-14.705-46.326-27.734-66.991l9.46-9.46c12.477-12.477,12.477-32.777,0-45.255
		l-22.627-22.628c-12.476-12.474-32.778-12.475-45.255,0l-9.46,9.461C350.327,60.098,327.849,50.792,304,45.393V32
		c0-17.645-14.355-32-32-32h-32c-17.645,0-32,14.355-32,32v13.393c-23.849,5.4-46.327,14.705-66.991,27.734l-9.46-9.461
		c-12.476-12.474-32.778-12.475-45.255,0L63.667,86.295c-12.477,12.477-12.477,32.777,0,45.255l9.46,9.459
		C60.098,161.675,50.792,184.153,45.393,208H32c-17.645,0-32,14.355-32,32v32c0,17.645,14.355,32,32,32h13.393
		c5.399,23.848,14.705,46.325,27.734,66.99l-9.46,9.461c-12.477,12.477-12.477,32.777,0,45.255l22.627,22.628
		c12.476,12.475,32.777,12.478,45.255-0.001l9.46-9.461c20.665,13.03,43.142,22.336,66.99,27.734V480c0,17.645,14.355,32,32,32h32
		c17.645,0,32-14.355,32-32v-13.394c23.847-5.398,46.325-14.704,66.99-27.733l9.46,9.461c12.476,12.475,32.778,12.477,45.255,0
		l22.627-22.629c12.477-12.477,12.477-32.777,0-45.255l-9.46-9.459c13.029-20.665,22.335-43.143,27.734-66.991H480
		c17.645,0,32-14.355,32-32v-32C512,222.355,497.645,208,480,208z M496,272c0,8.822-7.178,16-16,16h-19.883
		c-3.828,0-7.12,2.712-7.852,6.47c-5.127,26.313-15.313,50.913-30.272,73.12c-2.139,3.175-1.729,7.42,0.978,10.127l14.048,14.048
		c6.238,6.238,6.238,16.389,0,22.627l-22.627,22.628c-6.239,6.238-16.389,6.238-22.628,0l-14.048-14.049
		c-2.706-2.706-6.953-3.116-10.126-0.978c-22.209,14.96-46.81,25.145-73.12,30.271c-3.758,0.732-6.47,4.024-6.47,7.853V480
		c0,8.822-7.178,16-16,16h-32c-8.822,0-16-7.178-16-16v-19.884c0-3.828-2.712-7.12-6.47-7.853
		c-26.311-5.126-50.912-15.312-73.119-30.271c-1.361-0.917-2.918-1.365-4.467-1.365c-2.064,0-4.113,0.797-5.66,2.344l-14.048,14.049
		c-6.239,6.238-16.389,6.238-22.628,0l-22.627-22.628c-6.238-6.238-6.238-16.389,0-22.627l14.049-14.049
		c2.707-2.707,3.117-6.952,0.978-10.127c-14.959-22.207-25.145-46.808-30.272-73.119c-0.732-3.758-4.024-6.47-7.852-6.47H32
		c-8.822,0-16-7.178-16-16v-32c0-8.822,7.178-16,16-16h19.883c3.828,0,7.12-2.712,7.852-6.47
		c5.127-26.311,15.312-50.911,30.272-73.12c2.139-3.175,1.728-7.42-0.979-10.127l-14.048-14.048c-6.238-6.238-6.238-16.389,0-22.627
		L97.608,74.98c6.239-6.237,16.389-6.239,22.628,0l14.048,14.049c2.707,2.706,6.952,3.117,10.126,0.978
		c22.205-14.959,46.806-25.144,73.12-30.271c3.757-0.732,6.47-4.024,6.47-7.853V32c0-8.822,7.178-16,16-16h32
		c8.822,0,16,7.178,16,16v19.393c0,3.828,2.712,7.12,6.47,7.853c26.313,5.126,50.913,15.312,73.12,30.271
		c3.173,2.139,7.419,1.728,10.127-0.978l14.048-14.048c6.239-6.238,16.389-6.238,22.628,0l22.627,22.628
		c6.238,6.238,6.238,16.389,0,22.627l-14.048,14.048c-3.173,3.173-3.074,7.532-0.979,10.127c14.96,22.209,25.145,46.808,30.272,73.12
		c0.732,3.758,4.024,6.47,7.852,6.47H480c8.822,0,16,7.178,16,16V272z"/>
</g>
</svg>
